# AST/ASF file generated using VICON BodyLanguage
# -----------------------------------------------
:version 1.10
:name VICON
:units
  mass 1.0
  length 0.45
  angle deg
:documentation
   .ast/.asf automatically generated from VICON data using
   VICON BodyBuilder and BodyLanguage model FoxedUp or BRILLIANT.MOD
:root
   order TX TY TZ RX RY RZ
   axis XYZ
   position 0 0 0  
   orientation 0 0 0 
:bonedata
  begin
     id 1 
     name lhipjoint
     direction 0.645893 -0.654526 0.392961 
     length 2.38111 
     axis 0 0 0  XYZ
  end
  begin
     id 2 
     name lfemur
     direction 0.34202 -0.939693 0  
     length 6.6822  
     axis 0 0 20  XYZ
    dof rx ry rz
    limits (-160.0 20.0)
           (-70.0 70.0)
           (-60.0 70.0)
  end
  begin
     id 3 
     name ltibia
     direction 0.34202 -0.939693 0   
     length 6.93904   
     axis 0 0 20   XYZ
    dof rx
    limits (-10.0 170.0)
  end
  begin
     id 4 
     name lfoot
     direction 0.0694967 -0.190941 0.979138   
     length 2.13616   
     axis -90 7.62852e-016 20   XYZ
    dof rx rz
    limits (-45.0 90.0)
           (-70.0 20.0)
  end
  begin
     id 5 
     name ltoes
     direction 1.535e-011 -4.2202e-011 1   
     length 1.07536   
     axis -90 7.62852e-016 20   XYZ
    dof rx
    limits (-90.0 20.0)
  end
  begin
     id 6 
     name rhipjoint
     direction -0.700219 -0.612087 0.367481   
     length 2.54621  
     axis 0 0 0  XYZ 
  end
  begin
     id 7 
     name rfemur
     direction -0.34202 -0.939693 0   
     length 6.55353   
     axis 0 0 -20   XYZ
    dof rx ry rz
    limits (-160.0 20.0)
           (-70.0 70.0)
           (-70.0 60.0)
  end
  begin
     id 8 
     name rtibia
     direction -0.34202 -0.939693 0   
     length 6.8736   
     axis 0 0 -20   XYZ
    dof rx
    limits (-10.0 170.0)
 end
 begin
     id 9 
     name rfoot
     direction -0.0679995 -0.186827 0.980037   
     length 2.1218  
     axis -90 -7.62852e-016 -20   XYZ
    dof rx rz
    limits (-45.0 90.0)
           (-20.0 70.0)
  end
  begin
     id 10 
     name rtoes
     direction -1.53589e-011 -4.21772e-011 1   
     length 1.06864   
     axis -90 -7.62852e-016 -20   XYZ
    dof rx
    limits (-90.0 20.0)
  end
  begin
     id 11 
     name lowerback
     direction -0.0416607 0.996347 -0.0745409   
     length 2.12205   
     axis 0 0 0   XYZ
    dof rx ry rz
    limits (-20.0 45.0)
           (-30.0 30.0)
           (-30.0 30.0)
  end
  begin
     id 12 
     name upperback
     direction -0.000153993 0.999276 -0.0380568   
     length 2.12759   
     axis 0 0 0   XYZ
    dof rx ry rz
    limits (-20.0 45.0)
           (-30.0 30.0)
           (-30.0 30.0)
  end
  begin
     id 13 
     name thorax
     direction 0.0187671 0.999821 -0.00241421   
     length 2.13704   
     axis 0 0 0   XYZ
    dof rx ry rz
    limits (-20.0 45.0)
           (-30.0 30.0)
           (-30.0 30.0)
  end
  begin
     id 14 
     name lowerneck
     direction 0.0268157 0.964865 0.261374   
     length 1.65253   
     axis 0 0 0   XYZ
    dof rx ry rz
    limits (-20.0 45.0)
           (-30.0 30.0)
           (-30.0 30.0)
  end
  begin
     id 15 
     name upperneck
     direction 0.00263774 0.939908 -0.341418   
     length 1.72375   
     axis 0 0 0   XYZ
    dof rx ry rz
    limits (-20.0 45.0)
           (-30.0 30.0)
           (-30.0 30.0)
  end
  begin
     id 16
     name head
     direction -0.00526001 0.989001 -0.147818  
     length 1.74878  
     axis 0 0 0   XYZ
    dof rx ry rz
    limits (-20.0 45.0)
           (-30.0 30.0)
           (-30.0 30.0)
  end
  begin
     id 17 
     name lclavicle
     direction 0.881214 0.461162 -0.103884  
     length 3.25108  
     axis 0 0 0   XYZ
    dof ry rz
    limits (-20.0 10.0)
           (0.0 20.0)
  end
  begin
     id 18 
     name lhumerus
     direction 1 -4.4899e-011 3.38092e-027   
     length 4.87408   
     axis 180 -30 -90   XYZ
    dof rx ry rz
    limits (-60.0 90.0)
           (-90.0 90.0)
           (-90.0 90.0)
  end
  begin
     id 19
     name lradius
     direction 1 -4.48931e-011 9.96288e-027   
     length 2.76729   
     axis 180 -30 -90   XYZ
    dof rx
    limits (-10.0 170.0)
  end
  begin
     id 20
     name lwrist
     direction 1 -4.4896e-011 1.50617e-026   
     length 1.38364   
     axis -9.31234e-015 90 90   XYZ
    dof ry
    limits (-180.0 0.0)
 end
  begin
     id 21 
     name lhand
     direction 1 -4.49038e-011 3.01286e-026   
     length 0.98922   
     axis -1.92217e-014 90 90   XYZ
    dof rx rz
    limits (-90.0 90.0)
           (-45.0 45.0)
  end
  begin
     id 22 
     name lfingers
     direction 1 -4.49051e-011 6.02588e-026   
     length 0.797535   
     axis -3.84436e-014 90 90   XYZ
    dof rx
    limits (0.0 90.0)
  end
  begin
     id 23
     name lthumb
     direction 0.707107 -6.34901e-011 0.707107   
     length 1.14511   
     axis -90 45 2.19363e-014   XYZ
    dof rx rz
    limits (-45.0 45.0)
           (-45.0 45.0)
  end
  begin
     id 24 
     name rclavicle
     direction -0.893894 0.441652 -0.0767889   
     length 3.29361  
     axis 0 0 0   XYZ 
    dof ry rz
    limits (-10.0 20.0)
           (-20.0 0.0)
  end
  begin
     id 25 
     name rhumerus
     direction -1 -4.48945e-011 8.0491e-028  
     length 4.71404   
     axis 180 30 90   XYZ
    dof rx ry rz
    limits (-90.0 60.0)
           (-90.0 90.0)
           (-90.0 90.0)
  end
  begin
     id 26 
     name rradius
     direction -1 -4.48986e-011 9.27795e-027   
     length 2.83468   
     axis 180 30 90   XYZ
    dof rx
    limits (-10.0 170.0)
  end
  begin
     id 27 
     name rwrist
     direction -1 -4.49029e-011 1.5064e-026   
     length 1.41734   
     axis -9.31234e-015 -90 -90   XYZ
    dof ry
    limits (-180.0 0.0)
  end
  begin
     id 28
     name rhand
     direction -1 -4.48857e-011 3.01165e-026   
     length 0.868195   
     axis -1.92217e-014 -90 -90   XYZ
    dof rx rz
    limits (-90.0 90.0)
           (-45.0 45.0)
  end
  begin
     id 29
     name rfingers
     direction -1 -4.49048e-011 6.02585e-026   
     length 0.699961   
     axis -3.84436e-014 -90 -90   XYZ
    dof rx
    limits (0.0 90.0)
  end
  begin
     id 30
     name rthumb
     direction -0.707107 -6.34854e-011 0.707107   
     length 1.00501   
     axis -90 -45 -2.19363e-014   XYZ
    dof rx rz
    limits (-45.0 45.0)
           (-45.0 45.0)
  end
:hierarchy
  begin
    root lhipjoint rhipjoint lowerback
    lhipjoint lfemur
    lfemur ltibia
    ltibia lfoot
    lfoot ltoes
    rhipjoint rfemur
    rfemur rtibia
    rtibia rfoot
    rfoot rtoes
    lowerback upperback
    upperback thorax
    thorax lowerneck lclavicle rclavicle
    lowerneck upperneck
    upperneck head
    lclavicle lhumerus
    lhumerus lradius
    lradius lwrist
    lwrist lhand lthumb
    lhand lfingers
    rclavicle rhumerus
    rhumerus rradius
    rradius rwrist
    rwrist rhand rthumb
    rhand rfingers
  end

#!OML:ASF H:\ManfredObstacles\Project 1\Capture day 2\Session 1\male.ASF
:FULLY-SPECIFIED
:DEGREES
58
root 2.0922 14.5983 24.622 -173.994 -7.30353 -182.742
lowerback 14.0515 -0.471944 -3.97517
upperback 9.01709 -2.49547 2.76667
thorax 1.94128 -2.09402 5.43171
lowerneck -31.6 2.25971 0.347883
upperneck 42.6901 0.266232 -1.58523
head 24.6226 -1.05448 -1.36428
rclavicle -2.06736e-014 4.29375e-014
rhumerus -34.4114 -28.2719 -59.7699
rradius 18.8911
rwrist 47.8605
rhand -7.74365 -3.76902
rfingers 7.12502
rthumb 18.1555 -32.9417
lclavicle -2.06736e-014 4.29375e-014
lhumerus -23.5791 -20.8253 88.8088
lradius 64.4037
lwrist -28.038
lhand -8.2169 4.22547
lfingers 7.12502
lthumb 17.7001 33.4399
rfemur -48.5435 -0.482482 18.17
rtibia 44.1771
rfoot 6.08326 -16.7114
rtoes -12.5884
lfemur -17.1633 3.51021 -20.8411
ltibia 71.7727
lfoot 5.23254 13.4296
ltoes -6.66952
59
root 2.12118 14.5213 24.5198 -174.185 -7.18781 -182.416
lowerback 14.917 -0.299431 -3.51015
upperback 9.38687 -2.37202 2.81069
thorax 1.84428 -2.07349 5.22704
lowerneck -31.7496 2.20084 0.538151
upperneck 42.1732 0.318796 -1.63091
head 24.1828 -0.952015 -1.36165
rclavicle -3.18055e-015 3.37934e-014
rhumerus -33.4054 -28.4723 -60.506
rradius 18.7712
rwrist 48.3342
rhand -7.89399 -3.90081
rfingers 7.12502
rthumb 18.0108 -33.0869
lclavicle -3.18055e-015 3.37934e-014
lhumerus -22.7322 -19.9168 88.3819
lradius 63.5292
lwrist -28.5643
lhand -8.25124 4.43788
lfingers 7.12502
lthumb 17.6671 33.6552
rfemur -49.02 -0.505657 18.882
rtibia 45.9703
rfoot 4.82021 -16.9053
rtoes -12.5559
lfemur -19.0259 3.98579 -20.3286
ltibia 75.4714
lfoot 5.70333 13.0826
ltoes -5.50261
60
root 2.14689 14.4464 24.4229 -174.354 -7.13415 -182.115
lowerback 15.7517 -0.174614 -3.02607
upperback 9.77246 -2.31056 2.83559
thorax 1.79306 -2.08633 4.9952
lowerneck -31.8806 2.1434 0.702207
upperneck 41.6478 0.359703 -1.6436
head 23.7453 -0.856826 -1.3406
rclavicle -4.73108e-014 3.89618e-014
rhumerus -32.1995 -28.2929 -61.5402
rradius 18.7105
rwrist 48.463
rhand -8.05823 -4.14482
rfingers 7.12502
rthumb 17.8528 -33.3454
lclavicle -4.73108e-014 3.89618e-014
lhumerus -21.8495 -18.9722 87.9461
lradius 62.6534
lwrist -28.9314
lhand -8.31232 4.62707
lfingers 7.12502
lthumb 17.6083 33.8497
rfemur -49.4898 -0.69639 19.573
rtibia 47.6914
rfoot 3.61793 -16.9985
rtoes -12.6054
lfemur -20.9458 4.33429 -19.9002
ltibia 79.0098
lfoot 5.95174 13.1465
ltoes -4.42728
61
root 2.17032 14.3739 24.3305 -174.478 -7.12466 -181.883
lowerback 16.5186 -0.0766669 -2.59298
upperback 10.1842 -2.29324 2.84639
thorax 1.8182 -2.12751 4.77858
lowerneck -32.0005 2.08329 0.803565
upperneck 41.1243 0.389795 -1.59367
head 23.3215 -0.77038 -1.27875
rclavicle -1.15295e-014 6.36111e-015
rhumerus -30.7804 -27.7743 -62.8178
rradius 18.6864
rwrist 48.3133
rhand -8.24256 -4.49486
rfingers 7.12502
rthumb 17.6754 -33.7115
lclavicle -1.15295e-014 6.36111e-015
lhumerus -20.8756 -18.0288 87.5159
lradius 61.7555
lwrist -29.0688
lhand -8.41215 4.83041
lfingers 7.12502
lthumb 17.5122 34.0616
rfemur -49.9976 -1.03066 20.2019
rtibia 49.3753
rfoot 2.44331 -17.0395
rtoes -12.6501
lfemur -22.9347 4.58577 -19.5986
ltibia 82.3431
lfoot 5.97724 13.5883
ltoes -3.45491
62
root 2.19299 14.3044 24.2415 -174.553 -7.15605 -181.761
lowerback 17.251 0.00172956 -2.27362
upperback 10.5755 -2.30925 2.83693
thorax 1.85166 -2.18735 4.60885
lowerneck -31.805 2.02666 0.852913
upperneck 40.8805 0.419752 -1.50609
head 22.3951 -0.700078 -1.16651
rclavicle -3.57812e-015 6.75868e-015
rhumerus -29.2641 -26.8961 -64.247
rradius 18.7115
rwrist 47.8991
rhand -8.41193 -4.93389
rfingers 7.12502
rthumb 17.5124 -34.1651
lclavicle -3.57812e-015 6.75868e-015
lhumerus -19.8586 -17.1104 87.1065
lradius 60.761
lwrist -29.1386
lhand -8.60815 5.0022
lfingers 7.12502
lthumb 17.3236 34.2501
rfemur -50.5536 -1.4352 20.6982
rtibia 51.0463
rfoot 1.30623 -17.0822
rtoes -12.695
lfemur -24.9654 4.74574 -19.4594
ltibia 85.4279
lfoot 5.7948 14.2686
ltoes -2.71602
63
root 2.21564 14.2373 24.1557 -174.563 -7.20904 -181.776
lowerback 17.9511 0.0753968 -2.10857
upperback 10.9314 -2.34126 2.80506
thorax 1.87401 -2.2567 4.50543
lowerneck -31.7515 1.99317 0.915159
upperneck 40.3324 0.46234 -1.4243
head 21.977 -0.619783 -1.08676
rclavicle -4.77083e-015 7.95139e-015
rhumerus -27.703 -25.7404 -65.7369
rradius 18.7618
rwrist 47.3558
rhand -8.56771 -5.4298
rfingers 7.12502
rthumb 17.3625 -34.6743
lclavicle -4.77083e-015 7.95139e-015
lhumerus -18.799 -16.2475 86.7237
lradius 59.6509
lwrist -29.1667
lhand -8.90511 5.16734
lfingers 7.12502
lthumb 17.0378 34.4402
rfemur -51.1882 -1.86348 21.0276
rtibia 52.7218
rfoot 0.208809 -17.1345
rtoes -12.7354
lfemur -27.0464 4.8246 -19.5084
ltibia 88.2406
lfoot 5.46105 15.0301
ltoes -2.26077
64
root 2.23867 14.1723 24.0731 -174.5 -7.27106 -181.903
lowerback 18.626 0.154014 -2.09109
upperback 11.2381 -2.37418 2.77077
thorax 1.86509 -2.32699 4.48457
lowerneck -31.6703 1.97409 0.963486
upperneck 39.8152 0.527384 -1.36345
head 21.5859 -0.541422 -1.01502
rclavicle 5.56597e-015 2.82274e-014
rhumerus -26.1432 -24.3652 -67.1979
rradius 18.8384
rwrist 46.7766
rhand -8.70798 -5.92865
rfingers 7.12502
rthumb 17.2275 -35.185
lclavicle 5.56597e-015 2.82274e-014
lhumerus -17.6787 -15.456 86.3839
lradius 58.3893
lwrist -29.1535
lhand -9.26029 5.35566
lfingers 7.12502
lthumb 16.6959 34.6577
rfemur -51.9057 -2.24879 21.2016
rtibia 54.397
rfoot -0.839335 -17.2243
rtoes -12.7575
lfemur -29.1832 4.83278 -19.7108
ltibia 90.7764
lfoot 5.05524 15.7418
ltoes -2.15749
65
root 2.26189 14.1082 23.9935 -174.361 -7.33729 -182.121
lowerback 19.2851 0.242493 -2.18221
upperback 11.4864 -2.39383 2.72848
thorax 1.80596 -2.38718 4.51681
lowerneck -31.5911 1.94918 1.00413
upperneck 39.3038 0.59343 -1.33061
head 21.2105 -0.470029 -0.959664
rclavicle -1.98785e-014 1.11319e-014
rhumerus -24.6593 -22.8792 -68.5712
rradius 18.9623
rwrist 46.2335
rhand -8.81182 -6.39446
rfingers 7.12502
rthumb 17.1276 -35.6595
lclavicle -1.98785e-014 1.11319e-014
lhumerus -16.5003 -14.7582 86.0761
lradius 56.9674
lwrist -29.1895
lhand -9.65334 5.56258
lfingers 7.12502
lthumb 16.3175 34.8961
rfemur -52.7051 -2.56534 21.2397
rtibia 56.0607
rfoot -1.81913 -17.3559
rtoes -12.7839
lfemur -31.3779 4.75007 -20.0433
ltibia 93.0454
lfoot 4.64708 16.3381
ltoes -2.37523
66
root 2.28486 14.0444 23.9172 -174.147 -7.40078 -182.377
lowerback 19.9043 0.346677 -2.34495
upperback 11.6767 -2.38652 2.70543
thorax 1.70719 -2.42928 4.60669
lowerneck -31.4889 1.92007 1.03582
upperneck 38.8445 0.650178 -1.32955
head 20.8734 -0.413628 -0.926552
rclavicle 1.59028e-015 -3.57812e-015
rhumerus -23.263 -21.3782 -69.7938
rradius 19.1183
rwrist 45.7489
rhand -8.87729 -6.76245
rfingers 7.12502
rthumb 17.0646 -36.033
lclavicle 1.59028e-015 -3.57812e-015
lhumerus -15.2804 -14.14 85.8251
lradius 55.4077
lwrist -29.3009
lhand -10.0159 5.77373
lfingers 7.12502
lthumb 15.9684 35.1355
rfemur -53.5785 -2.79091 21.2015
rtibia 57.6886
rfoot -2.71439 -17.5424
rtoes -12.8096
lfemur -33.646 4.59695 -20.441
ltibia 95.0641
lfoot 4.26183 16.7859
ltoes -2.85566
